# xmcd
#
# Track frame offsets: 
#        182
#        18770
#        21430
#
# Disc length: 307 seconds
#
# Revision: 0
# Processed by: cddbd v1.5.2PL0 Copyright (c) Steve Scherf et al.
# Submitted via: ExactAudioCopyFreeDBPlugin 1.0
#
DISCID=18013103
DTITLE=Keith Sweat feat. Lil Mo - I'll Trade (A Million Bucks) [CDS Pr
DTITLE=omo 1)
DYEAR=2000
DGENRE=R&B
TTITLE0=I'll Trade (A Million Bucks) (Radio Edit)
TTITLE1=I'll Trade (A Million Bucks) (Audio Bio)
TTITLE2=I'll Trade (A Million Bucks) (Call Out Hook)
EXTD=
EXTT0=
EXTT1=
EXTT2=
PLAYORDER=
